{
  "accessors": [
    {
      "bufferView": 2,
      "componentType": 5126,
      "count": 28683,
      "max": [
        1.823909044265747,
        17.387786865234375,
        8.235037803649902
      ],
      "min": [
        -4.115856170654297,
        -8.211528778076172,
        -0.02946699969470501
      ],
      "type": "VEC3"
    },
    {
      "bufferView": 2,
      "byteOffset": 344196,
      "componentType": 5126,
      "count": 28683,
      "max": [
        0.999971330165863,
        0.9999301433563232,
        0.9999266266822815
      ],
      "min": [
        -0.9998455047607422,
        -0.9999992251396179,
        -0.999995768070221
      ],
      "type": "VEC3"
    },
    {
      "bufferView": 1,
      "componentType": 5126,
      "count": 28683,
      "max": [
        0.998000979423523,
        0.9997550249099731
      ],
      "min": [
        0.008004000410437584,
        0.005632000043988228
      ],
      "type": "VEC2"
    },
    {
      "bufferView": 0,
      "componentType": 5125,
      "count": 165288,
      "type": "SCALAR"
    },
    {
      "bufferView": 2,
      "byteOffset": 688392,
      "componentType": 5126,
      "count": 1106,
      "max": [
        0.8444939851760864,
        -6.193459987640381,
        7.063577175140381
      ],
      "min": [
        -0.3755910098552704,
        -6.460377216339111,
        6.817732810974121
      ],
      "type": "VEC3"
    },
    {
      "bufferView": 2,
      "byteOffset": 701664,
      "componentType": 5126,
      "count": 1106,
      "max": [
        0.9974667429924011,
        0.9998144507408142,
        0.99941486120224
      ],
      "min": [
        -0.9974669814109802,
        -0.9998142123222351,
        -0.9994085431098938
      ],
      "type": "VEC3"
    },
    {
      "bufferView": 1,
      "byteOffset": 229464,
      "componentType": 5126,
      "count": 1106,
      "max": [
        1.0,
        1.0
      ],
      "min": [
        0.0,
        -0.0
      ],
      "type": "VEC2"
    },
    {
      "bufferView": 0,
      "byteOffset": 661152,
      "componentType": 5125,
      "count": 6480,
      "type": "SCALAR"
    },
    {
      "bufferView": 2,
      "byteOffset": 714936,
      "componentType": 5126,
      "count": 962,
      "max": [
        0.8465179800987244,
        -6.19143009185791,
        7.065606117248535
      ],
      "min": [
        -0.37761300802230835,
        -6.465517044067383,
        6.815703868865967
      ],
      "type": "VEC3"
    },
    {
      "bufferView": 2,
      "byteOffset": 726480,
      "componentType": 5126,
      "count": 962,
      "max": [
        0.9974669814109802,
        0.9998142123222351,
        0.9994738698005676
      ],
      "min": [
        -0.9983294606208801,
        -0.9998142123222351,
        -0.9994736313819885
      ],
      "type": "VEC3"
    },
    {
      "bufferView": 1,
      "byteOffset": 238312,
      "componentType": 5126,
      "count": 962,
      "max": [
        1.0,
        1.0
      ],
      "min": [
        0.0,
        0.0
      ],
      "type": "VEC2"
    },
    {
      "bufferView": 0,
      "byteOffset": 687072,
      "componentType": 5125,
      "count": 5040,
      "type": "SCALAR"
    },
    {
      "bufferView": 2,
      "byteOffset": 738024,
      "componentType": 5126,
      "count": 878,
      "max": [
        0.8383600115776062,
        -6.199607849121094,
        7.057431221008301
      ],
      "min": [
        -0.3694629967212677,
        -6.454081058502197,
        6.823878765106201
      ],
      "type": "VEC3"
    },
    {
      "bufferView": 2,
      "byteOffset": 748560,
      "componentType": 5126,
      "count": 878,
      "max": [
        0.9974667429924011,
        0.9998140931129456,
        0.9994733333587646
      ],
      "min": [
        -0.9974669814109802,
        -0.9998140931129456,
        -0.9994733333587646
      ],
      "type": "VEC3"
    },
    {
      "bufferView": 1,
      "byteOffset": 246008,
      "componentType": 5126,
      "count": 878,
      "max": [
        1.0,
        1.0
      ],
      "min": [
        0.0,
        0.0
      ],
      "type": "VEC2"
    },
    {
      "bufferView": 0,
      "byteOffset": 707232,
      "componentType": 5125,
      "count": 4560,
      "type": "SCALAR"
    },
    {
      "bufferView": 2,
      "byteOffset": 759096,
      "componentType": 5126,
      "count": 3957,
      "max": [
        0.6399120092391968,
        -7.299654960632324,
        5.423809051513672
      ],
      "min": [
        0.6316220164299011,
        -7.300134181976318,
        5.422670841217041
      ],
      "type": "VEC3"
    },
    {
      "bufferView": 2,
      "byteOffset": 806580,
      "componentType": 5126,
      "count": 3957,
      "max": [
        1.0,
        1.0,
        1.0
      ],
      "min": [
        -1.0,
        -1.0,
        -1.0
      ],
      "type": "VEC3"
    },
    {
      "bufferView": 1,
      "byteOffset": 253032,
      "componentType": 5126,
      "count": 3957,
      "max": [
        0.5002260208129883,
        0.5000560283660889
      ],
      "min": [
        0.4997740089893341,
        0.4999440014362335
      ],
      "type": "VEC2"
    },
    {
      "bufferView": 0,
      "byteOffset": 725472,
      "componentType": 5125,
      "count": 18756,
      "type": "SCALAR"
    },
    {
      "bufferView": 2,
      "byteOffset": 854064,
      "componentType": 5126,
      "count": 493,
      "max": [
        0.6385380029678345,
        -7.299804210662842,
        5.423809051513672
      ],
      "min": [
        0.6376360058784485,
        -7.300102233886719,
        5.42292594909668
      ],
      "type": "VEC3"
    },
    {
      "bufferView": 2,
      "byteOffset": 859980,
      "componentType": 5126,
      "count": 493,
      "max": [
        0.11458495259284973,
        0.9768375158309937,
        0.41105514764785767
      ],
      "min": [
        -0.09641101956367493,
        -0.965786874294281,
        -0.35734692215919495
      ],
      "type": "VEC3"
    },
    {
      "bufferView": 1,
      "byteOffset": 284688,
      "componentType": 5126,
      "count": 493,
      "max": [
        0.5001509785652161,
        0.5000560283660889
      ],
      "min": [
        0.5001019835472107,
        0.4999699890613556
      ],
      "type": "VEC2"
    },
    {
      "bufferView": 0,
      "byteOffset": 800496,
      "componentType": 5125,
      "count": 2394,
      "type": "SCALAR"
    },
    {
      "bufferView": 2,
      "byteOffset": 865896,
      "componentType": 5126,
      "count": 7550,
      "max": [
        0.784151017665863,
        -6.579967021942139,
        6.004899024963379
      ],
      "min": [
        -0.33140599727630615,
        -8.118158340454102,
        5.237215995788574
      ],
      "type": "VEC3"
    },
    {
      "bufferView": 2,
      "byteOffset": 956496,
      "componentType": 5126,
      "count": 7550,
      "max": [
        0.9999592304229736,
        0.9995607733726501,
        0.9998258948326111
      ],
      "min": [
        -0.999822735786438,
        -0.9999456405639648,
        -0.9999228715896606
      ],
      "type": "VEC3"
    },
    {
      "bufferView": 1,
      "byteOffset": 288632,
      "componentType": 5126,
      "count": 7550,
      "max": [
        0.8464099764823914,
        1.0
      ],
      "min": [
        0.15358999371528625,
        0.0
      ],
      "type": "VEC2"
    },
    {
      "bufferView": 0,
      "byteOffset": 810072,
      "componentType": 5125,
      "count": 40800,
      "type": "SCALAR"
    },
    {
      "bufferView": 2,
      "byteOffset": 1047096,
      "componentType": 5126,
      "count": 2144,
      "max": [
        1.969756007194519,
        6.4499921798706055,
        3.834397077560425
      ],
      "min": [
        -2.211143970489502,
        -3.043454885482788,
        -0.010855999775230885
      ],
      "type": "VEC3"
    },
    {
      "bufferView": 2,
      "byteOffset": 1072824,
      "componentType": 5126,
      "count": 2144,
      "max": [
        0.9984408617019653,
        0.9995884895324707,
        0.999791145324707
      ],
      "min": [
        -0.9966512322425842,
        -0.9970306158065796,
        -0.9999974966049194
      ],
      "type": "VEC3"
    },
    {
      "bufferView": 1,
      "byteOffset": 349032,
      "componentType": 5126,
      "count": 2144,
      "max": [
        1.0,
        1.000012993812561
      ],
      "min": [
        0.0,
        -0.0
      ],
      "type": "VEC2"
    },
    {
      "bufferView": 0,
      "byteOffset": 973272,
      "componentType": 5125,
      "count": 11616,
      "type": "SCALAR"
    }
  ],
  "asset": {
    "extras": {
      "author": "ann55010970637 (https://sketchfab.com/ann55010970637)",
      "license": "CC-BY-4.0 (http://creativecommons.org/licenses/by/4.0/)",
      "source": "https://sketchfab.com/3d-models/t-rex-from-clash-of-the-dinosaurs-0d2d467a0ce94da581e3bdc811e6dafc",
      "title": "T-rex From Clash Of The Dinosaurs"
    },
    "generator": "Sketchfab-13.23.0",
    "version": "2.0"
  },
  "bufferViews": [
    {
      "buffer": 0,
      "byteLength": 1019736,
      "name": "floatBufferViews",
      "target": 34963
    },
    {
      "buffer": 0,
      "byteLength": 366184,
      "byteOffset": 1019736,
      "byteStride": 8,
      "name": "floatBufferViews",
      "target": 34962
    },
    {
      "buffer": 0,
      "byteLength": 1098552,
      "byteOffset": 1385920,
      "byteStride": 12,
      "name": "floatBufferViews",
      "target": 34962
    }
  ],
  "buffers": [
    {
      "byteLength": 2484472,
      "uri": "scene.bin"
    }
  ],
  "images": [
    {
      "uri": "CatEye2blinn1SG1_baseColor.jpeg"
    },
    {
      "uri": "lambert2SG_baseColor.jpeg"
    },
    {
      "uri": "phong1SG_baseColor.png"
    }
  ],
  "materials": [
    {
      "doubleSided": true,
      "name": "CatEye2blinn1SG1",
      "pbrMetallicRoughness": {
        "baseColorTexture": {
          "index": 0
        },
        "metallicFactor": 0.0
      }
    },
    {
      "doubleSided": true,
      "name": "CatEye2blinn2SG1",
      "pbrMetallicRoughness": {
        "baseColorTexture": {
          "index": 0
        },
        "metallicFactor": 0.0,
        "roughnessFactor": 0.6853653716354211
      }
    },
    {
      "doubleSided": true,
      "name": "CatEye2lambert2SG",
      "pbrMetallicRoughness": {
        "baseColorFactor": [
          0.0,
          0.0,
          0.0,
          1.0
        ],
        "metallicFactor": 0.0
      }
    },
    {
      "doubleSided": true,
      "name": "initialShadingGroup",
      "pbrMetallicRoughness": {
        "baseColorFactor": [
          0.5,
          0.5,
          0.5,
          1.0
        ],
        "metallicFactor": 0.0
      }
    },
    {
      "doubleSided": true,
      "name": "lambert2SG",
      "pbrMetallicRoughness": {
        "baseColorTexture": {
          "index": 1
        },
        "metallicFactor": 0.0
      }
    },
    {
      "doubleSided": true,
      "name": "phong1SG",
      "pbrMetallicRoughness": {
        "baseColorTexture": {
          "index": 2
        },
        "metallicFactor": 0.0,
        "roughnessFactor": 0.7469560465564757
      }
    },
    {
      "doubleSided": true,
      "name": "phong2SG",
      "pbrMetallicRoughness": {
        "baseColorTexture": {
          "index": 2
        },
        "metallicFactor": 0.0,
        "roughnessFactor": 0.8970116428046441
      }
    }
  ],
  "meshes": [
    {
      "name": "Object_0",
      "primitives": [
        {
          "attributes": {
            "NORMAL": 1,
            "POSITION": 0,
            "TEXCOORD_0": 2
          },
          "indices": 3,
          "material": 4,
          "mode": 4
        }
      ]
    },
    {
      "name": "Object_1",
      "primitives": [
        {
          "attributes": {
            "NORMAL": 5,
            "POSITION": 4,
            "TEXCOORD_0": 6
          },
          "indices": 7,
          "material": 0,
          "mode": 4
        }
      ]
    },
    {
      "name": "Object_2",
      "primitives": [
        {
          "attributes": {
            "NORMAL": 9,
            "POSITION": 8,
            "TEXCOORD_0": 10
          },
          "indices": 11,
          "material": 1,
          "mode": 4
        }
      ]
    },
    {
      "name": "Object_3",
      "primitives": [
        {
          "attributes": {
            "NORMAL": 13,
            "POSITION": 12,
            "TEXCOORD_0": 14
          },
          "indices": 15,
          "material": 2,
          "mode": 4
        }
      ]
    },
    {
      "name": "Object_4",
      "primitives": [
        {
          "attributes": {
            "NORMAL": 17,
            "POSITION": 16,
            "TEXCOORD_0": 18
          },
          "indices": 19,
          "material": 3,
          "mode": 4
        }
      ]
    },
    {
      "name": "Object_5",
      "primitives": [
        {
          "attributes": {
            "NORMAL": 21,
            "POSITION": 20,
            "TEXCOORD_0": 22
          },
          "indices": 23,
          "material": 3,
          "mode": 4
        }
      ]
    },
    {
      "name": "Object_6",
      "primitives": [
        {
          "attributes": {
            "NORMAL": 25,
            "POSITION": 24,
            "TEXCOORD_0": 26
          },
          "indices": 27,
          "material": 5,
          "mode": 4
        }
      ]
    },
    {
      "name": "Object_7",
      "primitives": [
        {
          "attributes": {
            "NORMAL": 29,
            "POSITION": 28,
            "TEXCOORD_0": 30
          },
          "indices": 31,
          "material": 6,
          "mode": 4
        }
      ]
    }
  ],
  "nodes": [
    {
      "children": [
        1
      ],
      "matrix": [
        1.0,
        0.0,
        0.0,
        0.0,
        0.0,
        2.220446049250313e-16,
        -1.0,
        0.0,
        0.0,
        1.0,
        2.220446049250313e-16,
        0.0,
        0.0,
        0.0,
        0.0,
        1.0
      ],
      "name": "Sketchfab_model"
    },
    {
      "children": [
        2,
        3,
        4,
        5,
        6,
        7,
        8,
        9
      ],
      "name": "Trex.obj.cleaner.materialmerger.gles"
    },
    {
      "mesh": 0,
      "name": "Object_2"
    },
    {
      "mesh": 1,
      "name": "Object_3"
    },
    {
      "mesh": 2,
      "name": "Object_4"
    },
    {
      "mesh": 3,
      "name": "Object_5"
    },
    {
      "mesh": 4,
      "name": "Object_6"
    },
    {
      "mesh": 5,
      "name": "Object_7"
    },
    {
      "mesh": 6,
      "name": "Object_8"
    },
    {
      "mesh": 7,
      "name": "Object_9"
    }
  ],
  "samplers": [
    {
      "magFilter": 9729,
      "minFilter": 9987,
      "wrapS": 10497,
      "wrapT": 10497
    }
  ],
  "scene": 0,
  "scenes": [
    {
      "name": "Sketchfab_Scene",
      "nodes": [
        0
      ]
    }
  ],
  "textures": [
    {
      "sampler": 0,
      "source": 0
    },
    {
      "sampler": 0,
      "source": 1
    },
    {
      "sampler": 0,
      "source": 2
    }
  ]
}
